<mxfile host="app.diagrams.net" agent="Mozilla/5.0 (Windows NT 10.0; Win64; x64) AppleWebKit/537.36 (KHTML, like Gecko) Chrome/135.0.0.0 Safari/537.36" version="26.2.9">
  <diagram id="kL7uwZ2te-jIk-RBPaaC" name="Architecture">
    <mxGraphModel dx="1428" dy="1578" grid="1" gridSize="10" guides="1" tooltips="1" connect="1" arrows="1" fold="1" page="1" pageScale="1" pageWidth="1169" pageHeight="827" math="0" shadow="0">
      <root>
        <mxCell id="0" />
        <mxCell id="1" parent="0" />
        <mxCell id="2" value="Manager Service" style="rounded=1;whiteSpace=wrap;html=1;fillColor=#dae8fc;strokeColor=#6c8ebf;fontSize=12;" parent="1" vertex="1">
          <mxGeometry x="10" y="90" width="180" height="60" as="geometry" />
        </mxCell>
        <mxCell id="3" value="MongoDB Replica Set (Primary + Secondaries)" style="rounded=1;whiteSpace=wrap;html=1;fillColor=#d5e8d4;strokeColor=#82b366;fontSize=12;" parent="1" vertex="1">
          <mxGeometry x="170" y="-60" width="240" height="80" as="geometry" />
        </mxCell>
        <mxCell id="4" value="RabbitMQ" style="rounded=1;whiteSpace=wrap;html=1;fillColor=#fff2cc;strokeColor=#d6b656;fontSize=12;" parent="1" vertex="1">
          <mxGeometry x="370" y="170" width="240" height="60" as="geometry" />
        </mxCell>
        <mxCell id="5" value="Worker 1" style="rounded=1;whiteSpace=wrap;html=1;fillColor=#f8cecc;strokeColor=#b85450;fontSize=12;" parent="1" vertex="1">
          <mxGeometry x="680" y="240" width="140" height="60" as="geometry" />
        </mxCell>
        <mxCell id="6" value="Worker 2" style="rounded=1;whiteSpace=wrap;html=1;fillColor=#f8cecc;strokeColor=#b85450;fontSize=12;" parent="1" vertex="1">
          <mxGeometry x="990" y="384" width="140" height="60" as="geometry" />
        </mxCell>
        <mxCell id="7" value="Worker 3" style="rounded=1;whiteSpace=wrap;html=1;fillColor=#f8cecc;strokeColor=#b85450;fontSize=12;" parent="1" vertex="1">
          <mxGeometry x="840" y="300" width="140" height="60" as="geometry" />
        </mxCell>
        <mxCell id="8" value="Записывает задачу" style="edgeStyle=orthogonalEdgeStyle;rounded=0;strokeColor=#000000;fontSize=10;" parent="1" source="2" target="3" edge="1">
          <mxGeometry relative="1" as="geometry">
            <mxPoint x="300" y="130" as="targetPoint" />
          </mxGeometry>
        </mxCell>
        <mxCell id="9" value="Публикует задачу в очередь" style="edgeStyle=orthogonalEdgeStyle;rounded=0;strokeColor=#000000;fontSize=10;" parent="1" source="2" target="4" edge="1">
          <mxGeometry relative="1" as="geometry">
            <mxPoint x="300" y="160" as="targetPoint" />
          </mxGeometry>
        </mxCell>
        <mxCell id="10" value="Доставляет задачи" style="edgeStyle=orthogonalEdgeStyle;rounded=0;strokeColor=#000000;fontSize=10;" parent="1" source="4" target="5" edge="1">
          <mxGeometry x="0.4667" y="114" relative="1" as="geometry">
            <mxPoint x="300" y="320" as="targetPoint" />
            <mxPoint x="-4" y="-30" as="offset" />
          </mxGeometry>
        </mxCell>
        <mxCell id="11" value="" style="edgeStyle=orthogonalEdgeStyle;rounded=0;strokeColor=#000000;fontSize=10;" parent="1" source="4" target="6" edge="1">
          <mxGeometry relative="1" as="geometry">
            <mxPoint x="320" y="320" as="targetPoint" />
          </mxGeometry>
        </mxCell>
        <mxCell id="12" value="" style="edgeStyle=orthogonalEdgeStyle;rounded=0;strokeColor=#000000;fontSize=10;" parent="1" source="4" target="7" edge="1">
          <mxGeometry relative="1" as="geometry">
            <mxPoint x="340" y="320" as="targetPoint" />
          </mxGeometry>
        </mxCell>
        <mxCell id="13" value="Отправляют ответ" style="edgeStyle=orthogonalEdgeStyle;rounded=0;strokeColor=#000000;fontSize=10;" parent="1" source="5" target="4" edge="1">
          <mxGeometry relative="1" as="geometry">
            <mxPoint x="250" y="280" as="targetPoint" />
          </mxGeometry>
        </mxCell>
        <mxCell id="14" value="Отправляют ответ" style="edgeStyle=orthogonalEdgeStyle;rounded=0;strokeColor=#000000;fontSize=10;" parent="1" source="6" target="4" edge="1">
          <mxGeometry relative="1" as="geometry">
            <mxPoint x="270" y="280" as="targetPoint" />
          </mxGeometry>
        </mxCell>
        <mxCell id="15" value="Отправляют ответ" style="edgeStyle=orthogonalEdgeStyle;rounded=0;strokeColor=#000000;fontSize=10;" parent="1" source="7" target="4" edge="1">
          <mxGeometry relative="1" as="geometry">
            <mxPoint x="290" y="280" as="targetPoint" />
          </mxGeometry>
        </mxCell>
        <mxCell id="16" value="Передаёт ответы" style="edgeStyle=orthogonalEdgeStyle;rounded=0;strokeColor=#000000;fontSize=10;" parent="1" source="4" target="2" edge="1">
          <mxGeometry relative="1" as="geometry">
            <mxPoint x="250" y="200" as="targetPoint" />
          </mxGeometry>
        </mxCell>
      </root>
    </mxGraphModel>
  </diagram>
</mxfile>
